<?xml version="1.0" standalone="no"?>
<!DOCTYPE svg PUBLIC "-//W3C//DTD SVG 20010904//EN"
 "http://www.w3.org/TR/2001/REC-SVG-20010904/DTD/svg10.dtd">
<svg version="1.0" xmlns="http://www.w3.org/2000/svg"
 width="500.000000pt" height="500.000000pt" viewBox="0 0 500.000000 500.000000"
 preserveAspectRatio="xMidYMid meet">

<g transform="translate(0.000000,500.000000) scale(0.100000,-0.100000)"
fill="#000000" stroke="none">
<path d="M2407 4867 c-132 -125 -126 -111 -101 -251 17 -101 15 -106 -51 -106
l-40 0 -25 -97 -26 -98 -69 -5 c-39 -3 -75 -9 -81 -13 -6 -3 -17 -51 -24 -107
l-13 -100 -241 0 c-133 0 -281 -5 -330 -10 -191 -20 -260 -92 -297 -312 -13
-76 -13 -76 -43 -76 -17 0 -43 -3 -58 -7 -40 -11 -78 17 -78 55 0 23 -6 33
-25 42 -24 11 -25 15 -25 92 1 55 5 87 15 100 23 30 18 72 -15 142 -33 68 -60
94 -98 94 -41 0 -61 -19 -97 -90 -38 -76 -43 -105 -20 -137 20 -29 31 -153 16
-181 -6 -12 -18 -22 -26 -22 -10 0 -17 -15 -21 -41 -9 -53 -37 -68 -95 -49
l-40 14 -47 -47 -47 -47 18 -33 c26 -48 9 -83 -44 -92 -32 -6 -39 -11 -44 -38
-4 -18 -8 -39 -11 -47 -2 -9 -37 -35 -78 -60 -41 -24 -73 -47 -71 -50 9 -15
196 -121 204 -116 12 8 25 -12 41 -61 l13 -42 -52 -61 c-28 -34 -51 -69 -51
-77 0 -8 10 -29 22 -45 20 -29 20 -34 7 -72 -12 -34 -20 -42 -53 -51 -46 -13
-54 -29 -55 -105 -1 -86 5 -99 55 -111 39 -10 45 -16 56 -51 10 -36 9 -44 -12
-83 l-24 -43 26 -34 c14 -18 42 -50 61 -71 l36 -38 40 20 c39 20 42 20 76 4
19 -9 36 -21 36 -27 1 -6 1 -204 -1 -441 -2 -421 -2 -431 20 -494 40 -115 148
-365 159 -369 12 -4 37 47 107 218 26 64 48 104 55 102 34 -9 182 -22 244 -22
39 0 75 -4 81 -8 7 -4 30 -45 51 -92 39 -82 42 -86 107 -124 37 -21 73 -50 81
-65 17 -33 138 -150 190 -185 51 -33 68 -33 127 5 27 17 50 30 51 28 1 -2 29
-59 62 -126 l59 -122 46 -6 c105 -15 153 -26 164 -39 16 -20 67 -34 97 -26 25
7 114 -2 124 -12 3 -3 8 -29 12 -57 3 -29 9 -48 14 -44 4 4 17 41 29 81 11 40
27 75 33 78 7 2 75 13 151 24 78 11 143 24 147 31 4 7 10 32 14 55 6 41 9 44
43 49 47 8 116 21 216 40 43 8 91 15 107 15 58 0 188 106 261 213 21 31 42 57
46 57 4 0 16 -7 26 -15 29 -22 48 -19 109 17 53 30 58 37 100 129 l45 97 69 6
c106 10 287 46 295 59 4 7 8 40 8 74 0 56 3 64 25 79 22 14 32 15 64 5 21 -6
45 -11 52 -11 14 0 109 129 109 147 0 5 -8 18 -17 29 -41 45 -43 49 -32 88 9
31 18 41 55 56 43 19 44 20 44 67 -1 51 -14 130 -23 139 -3 3 -24 8 -47 11
-35 5 -44 11 -59 42 -18 35 -18 37 1 74 10 21 16 46 13 56 -3 10 -33 42 -66
71 l-60 52 -40 -26 c-32 -21 -47 -25 -74 -20 -20 3 -35 12 -35 20 0 7 17 48
37 89 36 71 40 76 68 73 24 -2 31 -8 35 -32 6 -36 29 -51 64 -42 19 5 28 15
33 36 4 25 11 30 33 30 25 0 29 -6 50 -72 12 -40 30 -98 40 -128 10 -30 35
-108 55 -172 20 -65 40 -120 45 -123 5 -3 28 -41 51 -85 24 -44 46 -80 50 -80
3 0 8 60 11 134 4 111 8 137 22 152 34 33 0 137 -45 142 -24 3 -29 12 -54 94
-15 51 -29 98 -32 105 -4 9 4 13 25 13 35 0 55 20 50 51 -3 25 -17 33 -71 46
l-39 8 -34 105 c-31 94 -34 112 -28 176 7 81 -10 133 -53 161 -23 15 -24 18
-17 113 6 95 6 98 -16 110 -12 7 -35 10 -51 8 -16 -3 -29 -1 -29 4 0 18 31 68
42 68 6 0 21 9 33 20 l22 20 46 -25 c38 -21 50 -24 67 -15 18 10 22 8 31 -20
8 -22 28 -39 73 -65 62 -34 63 -35 102 -19 22 8 46 25 53 37 68 108 191 335
191 351 0 12 -8 52 -18 91 l-18 70 -69 39 -69 38 -17 -21 c-9 -11 -19 -21 -22
-21 -2 0 -9 18 -16 39 -6 22 -24 50 -39 61 -20 16 -26 29 -24 51 5 44 -18 72
-94 114 -77 43 -106 46 -139 15 l-24 -23 -45 27 c-52 30 -74 33 -92 9 -11 -16
-13 -16 -22 7 -6 14 -13 32 -15 41 -3 9 -31 31 -63 48 -51 28 -61 30 -96 21
-42 -12 -43 -13 -121 -150 -54 -94 -77 -118 -77 -83 0 32 -60 123 -100 152
-22 16 -64 35 -93 42 -53 13 -376 19 -512 9 -70 -5 -70 -5 -73 21 -2 16 -12
30 -26 37 -26 11 -28 22 -46 197 -7 61 -15 113 -19 117 -3 4 -51 21 -106 38
-54 17 -101 32 -103 34 -2 3 4 52 13 110 17 108 13 135 -20 153 -8 5 -56 50
-108 101 -52 50 -100 92 -108 92 -8 0 -67 -51 -132 -113z m85 -29 c-22 -51
-45 -105 -52 -119 l-12 -26 -52 21 c-28 11 -53 22 -56 24 -3 2 42 48 100 102
58 54 107 96 108 95 2 -2 -14 -45 -36 -97z m-1654 -713 l22 -45 -75 0 c-41 0
-75 2 -75 5 0 2 7 23 16 45 15 37 19 40 53 40 34 0 39 -4 59 -45z m3284 -68
l36 -23 -114 -194 c-62 -107 -117 -196 -121 -197 -21 -7 -37 21 -49 83 l-13
69 75 132 c41 73 82 137 92 142 27 16 54 12 94 -12z m-3242 -24 c0 -36 -13
-41 -100 -40 -85 2 -85 2 -88 30 l-3 27 95 0 c85 0 96 -2 96 -17z m1103 -25
c4 -14 -1 -130 -9 -165 -4 -23 -5 -23 -208 -23 -112 0 -217 -3 -234 -6 -38 -8
-54 -43 -50 -110 l3 -49 170 -6 c186 -7 205 -11 252 -45 47 -36 57 -78 49
-218 -10 -181 -23 -241 -60 -284 -62 -71 -67 -72 -479 -72 l-367 0 4 23 c3 12
10 59 17 104 6 46 17 87 23 93 8 6 115 11 267 12 l254 3 13 69 c10 51 11 71 2
80 -7 7 -77 13 -193 16 -163 5 -186 8 -224 28 -53 28 -63 46 -63 119 0 60 39
277 58 323 17 42 72 89 121 104 63 20 647 23 654 4z m770 -4 c55 -19 102 -68
116 -121 5 -21 17 -148 25 -283 9 -135 21 -313 27 -397 6 -83 8 -156 4 -162
-4 -7 -63 -11 -164 -11 l-158 0 -6 128 c-4 70 -7 157 -7 195 0 46 -4 67 -12
68 -43 2 -184 -3 -188 -7 -2 -3 -7 -89 -10 -192 l-5 -187 -162 -3 -163 -2 0
62 c0 35 4 122 9 193 6 72 15 227 21 345 7 118 16 232 22 253 13 54 61 104
117 121 70 22 470 22 534 0z m884 4 c60 -15 116 -70 136 -134 31 -98 130 -678
123 -717 -9 -49 -58 -104 -104 -118 -24 -6 -142 -9 -333 -7 l-296 3 -41 29
c-74 51 -82 81 -108 400 -34 415 -32 458 23 508 44 40 89 47 326 47 142 1 245
-3 274 -11z m823 -138 c140 -78 175 -102 173 -118 -2 -17 -189 -347 -215 -379
-7 -9 -22 -4 -59 18 -27 16 -52 29 -54 29 -5 0 -161 91 -226 132 l-47 29 100
172 c125 216 126 217 141 216 6 0 91 -44 187 -99z m56 65 c66 -37 94 -69 76
-87 -6 -6 -39 7 -93 38 -46 26 -86 49 -88 50 -6 5 21 34 32 34 5 0 39 -16 73
-35z m-331 5 c3 -5 -1 -10 -10 -10 -9 0 -13 5 -10 10 3 6 8 10 10 10 2 0 7 -4
10 -10z m-3285 -211 c0 -34 17 -54 58 -73 36 -16 42 -17 70 -2 41 21 49 9 54
-86 3 -68 7 -81 37 -123 27 -38 31 -49 20 -56 -26 -17 -40 -4 -64 55 -13 32
-39 75 -57 94 -39 40 -101 82 -123 82 -12 0 -15 14 -15 71 0 44 4 68 10 64 6
-3 10 -15 10 -26z m-220 -39 c0 -57 -1 -60 -32 -76 -83 -43 -138 -107 -163
-189 -15 -48 -36 -55 -76 -26 -16 12 -34 19 -39 16 -12 -7 -12 -3 -4 19 3 8
21 18 40 22 27 5 39 15 54 45 19 36 19 40 3 74 l-17 35 33 29 c32 29 34 29 65
14 30 -14 35 -14 74 6 27 14 42 28 42 40 0 21 10 51 16 51 2 0 4 -27 4 -60z
m4175 -69 c1 -11 -1 -18 -4 -16 -4 2 -36 -47 -73 -108 -36 -62 -82 -139 -102
-172 -19 -33 -40 -66 -45 -74 -7 -12 -18 -9 -58 14 -26 15 -50 29 -51 31 -2 1
49 93 113 203 l116 201 51 -30 c33 -18 52 -36 53 -49z m-4165 -110 c0 -15 -7
-36 -15 -47 -8 -10 -15 -34 -15 -51 l0 -33 -55 0 c-60 0 -63 4 -41 53 17 37
39 63 80 94 33 27 46 22 46 -16z m245 4 c42 -34 75 -87 75 -120 0 -13 -9 -16
-52 -13 -51 3 -53 4 -56 33 -2 17 -8 34 -13 40 -10 10 -13 95 -3 95 4 0 26
-16 49 -35z m3020 -11 c13 -9 32 -13 43 -10 14 5 22 -1 31 -21 7 -15 20 -33
30 -39 12 -9 17 -25 15 -61 -1 -37 -12 -68 -50 -135 -27 -49 -52 -88 -56 -88
-5 0 -8 21 -8 48 0 26 -11 107 -25 181 -14 74 -25 136 -25 138 0 8 23 2 45
-13z m-3107 -60 c13 -4 22 -14 22 -25 0 -17 -9 -19 -90 -19 -72 0 -90 3 -90
15 0 7 8 19 18 24 19 11 104 14 140 5z m-326 -96 c108 -2 111 -4 80 -41 -14
-16 -13 -20 8 -42 l23 -25 -102 0 c-78 0 -110 -4 -131 -17 -27 -16 -29 -15
-94 23 -36 21 -65 42 -64 46 2 5 32 26 68 47 57 35 66 37 85 25 13 -8 59 -14
127 -16z m228 18 c0 -2 -13 -19 -30 -37 -16 -19 -30 -38 -30 -42 0 -5 20 -29
44 -55 l45 -47 45 45 c26 24 46 50 46 56 0 7 -13 26 -30 44 -16 18 -30 34 -30
36 0 2 15 4 34 4 28 0 40 -7 66 -40 l32 -40 -31 -38 c-38 -44 -35 -42 -88 -88
l-43 -36 -40 36 c-22 20 -45 36 -50 36 -6 0 -10 5 -10 11 0 6 -14 27 -30 46
l-30 34 32 39 c26 31 40 40 66 40 17 0 32 -2 32 -4z m482 -33 c10 -10 -5 -13
-75 -13 -80 0 -90 -2 -112 -25 -14 -13 -25 -31 -25 -40 0 -11 -11 -15 -40 -15
-44 0 -48 5 -23 32 14 16 14 20 1 36 -34 39 -32 39 117 38 100 -1 148 -5 157
-13z m2953 -32 c88 -50 88 -41 -11 -218 -48 -87 -105 -190 -127 -230 l-40 -72
-31 23 c-17 13 -50 33 -74 45 l-43 22 30 52 c17 29 74 132 128 230 53 97 102
177 108 177 5 0 33 -13 60 -29z m-3536 -115 c9 -17 10 -29 3 -42 -9 -17 -13
-15 -41 15 -34 36 -33 51 3 51 14 0 28 -9 35 -24z m321 10 c0 -25 -12 -46 -31
-56 -14 -8 -21 -6 -29 11 -9 16 -8 24 6 40 20 22 54 25 54 5z m-396 -37 c14
-31 29 -46 61 -60 l43 -19 23 -94 c21 -88 21 -95 6 -133 -16 -40 -16 -40 30
-149 l45 -109 -5 -330 c-3 -181 -2 -478 2 -660 l7 -330 4 360 c2 198 3 497 1
665 l-4 306 42 97 c46 109 47 116 25 159 -15 30 -15 37 7 124 21 85 26 94 54
106 16 6 42 25 57 41 l28 29 -6 -74 c-8 -90 2 -113 56 -129 34 -10 58 -34 47
-46 -3 -2 -34 7 -70 21 l-66 25 -22 -30 -21 -30 26 -39 c31 -48 32 -55 5 -117
-20 -47 -20 -63 -21 -723 l-1 -675 -24 -65 c-52 -140 -117 -290 -124 -283 -4
5 -37 81 -73 171 l-66 164 0 679 0 679 -25 61 -24 61 24 36 c28 41 30 59 11
85 -17 22 -29 21 -95 -3 -29 -12 -56 -19 -58 -16 -3 3 2 32 10 66 l16 61 -35
63 c-49 90 -47 96 29 96 l62 -1 19 -40z m168 -26 l37 -36 42 38 43 38 9 -27
c6 -18 6 -31 -1 -35 -5 -3 -21 -54 -36 -114 -24 -99 -25 -110 -11 -137 8 -16
15 -37 15 -47 0 -28 -52 -145 -61 -136 -4 4 -19 37 -34 71 -25 62 -26 65 -10
106 16 41 15 47 -10 147 -33 126 -40 169 -29 169 4 0 25 -16 46 -37z m3584
-24 c3 -6 3 -44 -1 -85 -7 -74 -7 -74 -36 -74 l-29 0 0 69 c0 38 3 76 6 85 7
18 49 22 60 5z m-140 -192 c-48 -45 -68 -96 -60 -150 4 -24 -6 -57 -45 -138
l-50 -107 -47 -4 c-25 -2 -47 -1 -49 2 -2 3 21 48 51 100 33 59 52 102 48 113
-3 11 30 81 93 192 l98 174 3 -70 3 -71 -45 -41z m-3749 33 l-20 -80 -24 22
c-12 12 -23 28 -23 36 0 15 68 102 80 102 4 0 -2 -36 -13 -80z m3428 0 l-26
-51 -29 18 c-17 9 -30 20 -30 23 1 8 83 58 98 59 8 1 4 -16 -13 -49z m499 -69
c27 -27 31 -38 31 -85 0 -64 -26 -100 -83 -116 -48 -13 -85 -3 -121 32 -26 26
-31 38 -31 80 0 29 7 59 17 75 40 60 133 67 187 14z m-3231 -29 c2 -4 0 -23
-3 -42 l-6 -35 -27 52 -27 52 30 -11 c17 -5 31 -13 33 -16z m-658 -29 c-38
-68 -52 -164 -35 -242 15 -72 68 -161 124 -206 30 -25 36 -36 36 -68 l0 -38
-30 21 -29 21 -42 -22 -42 -21 -30 33 c-59 67 -61 75 -38 108 25 35 25 52 3
110 -15 38 -23 46 -56 55 -47 13 -61 45 -52 110 6 39 9 43 49 53 38 11 44 16
59 60 17 49 43 69 91 72 17 1 16 -4 -8 -46z m1263 -168 c78 -118 146 -215 150
-215 4 0 79 97 167 215 l160 215 201 0 202 0 6 -132 c3 -73 11 -335 16 -583 6
-247 12 -479 13 -515 l2 -65 -214 -3 c-118 -1 -218 1 -222 5 -4 5 -4 176 -1
381 4 204 5 372 2 372 -3 0 -61 -77 -130 -170 l-125 -170 -92 0 -93 0 -112
170 c-62 93 -116 170 -120 170 -5 0 -8 -17 -8 -37 0 -21 -7 -103 -15 -183 -9
-80 -20 -188 -26 -240 -5 -52 -14 -135 -19 -185 -5 -49 -10 -96 -10 -102 0
-10 -52 -13 -225 -13 -126 0 -225 4 -225 9 0 5 23 164 50 352 28 189 69 468
91 619 22 151 42 285 45 297 6 23 6 23 198 23 l192 0 142 -215z m2059 80 c12
-71 22 -138 22 -147 1 -17 -20 -18 -302 -18 -236 0 -307 -3 -321 -13 -18 -13
-18 -21 -2 -198 9 -101 21 -233 27 -294 12 -134 14 -144 46 -156 13 -5 166 -9
339 -9 173 0 314 -3 314 -7 0 -5 9 -69 20 -143 11 -74 20 -145 20 -157 l0 -23
-363 0 c-264 0 -366 3 -375 12 -9 9 -18 9 -37 0 -74 -34 -246 2 -308 64 -57
57 -68 103 -78 324 -32 719 -32 719 16 792 30 46 99 87 162 98 27 4 217 7 423
6 l375 -1 22 -130z m-2749 -65 c3 -69 1 -80 -30 -140 -52 -101 -60 -94 -56 51
3 103 8 133 27 174 l23 50 16 -30 c8 -17 17 -63 20 -105z m-462 65 c20 -46 24
-71 23 -143 -1 -48 -4 -98 -8 -112 -7 -24 -8 -24 -33 20 -35 59 -52 130 -45
188 6 49 23 102 32 102 3 0 17 -25 31 -55z m3623 -76 c13 -5 9 -15 -215 -476
-82 -170 -107 -213 -122 -213 -20 0 -32 25 -32 68 0 12 25 72 56 133 59 119
230 480 245 516 l8 23 24 -24 c13 -13 29 -25 36 -27z m291 -332 c116 -376 118
-387 69 -402 -12 -4 -24 -3 -28 2 -4 4 -29 78 -56 163 -26 85 -76 244 -111
354 -35 109 -64 200 -64 202 0 2 6 4 13 4 6 0 23 9 37 20 14 10 26 18 27 16 1
-1 52 -163 113 -359z m-200 238 c13 -41 20 -78 17 -82 -4 -3 -7 1 -7 10 0 21
-35 57 -54 57 -8 0 -22 -7 -31 -16 -9 -9 -18 -14 -21 -11 -9 9 45 117 59 117
8 0 23 -29 37 -75z m-26 -53 c2 -4 1 -41 -2 -82 -6 -60 -10 -75 -24 -78 -15
-3 -18 4 -18 45 0 72 11 123 26 123 7 0 15 -3 18 -8z m-716 -17 c2 -2 -8 -21
-22 -42 -15 -21 -26 -52 -26 -70 0 -37 -10 -41 -32 -15 -21 23 -68 129 -60
136 5 6 133 -3 140 -9z m442 -20 c0 -10 -10 -15 -30 -15 -29 0 -38 9 -23 23
13 13 53 7 53 -8z m-44 -45 c29 0 29 -1 5 -49 -19 -36 -23 -39 -77 -45 -31 -3
-58 -5 -60 -3 -2 1 15 33 37 71 39 65 42 67 56 47 8 -12 25 -21 39 -21z m244
9 c0 -5 -11 -9 -25 -9 -17 0 -23 4 -19 14 6 15 44 10 44 -5z m150 -9 c0 -5
-11 -10 -25 -10 -14 0 -25 5 -25 10 0 6 11 10 25 10 14 0 25 -4 25 -10z m204
4 c28 -11 18 -34 -14 -34 -16 0 -30 2 -30 4 0 2 -3 11 -6 20 -6 17 19 22 50
10z m-3492 -84 c-4 -25 -10 -43 -12 -40 -3 3 -22 -6 -42 -18 l-38 -24 0 39 c0
33 6 43 47 80 54 46 59 41 45 -37z m2858 -44 c0 -3 -19 -41 -41 -86 -30 -60
-48 -84 -68 -91 -14 -5 -35 -14 -45 -20 -16 -9 -22 -7 -37 12 -22 29 -20 32
35 58 44 20 49 27 61 88 5 27 12 32 38 36 18 2 38 5 45 5 6 1 12 0 12 -2z
m-2876 -91 c-5 -31 -61 -105 -79 -105 -3 0 -5 26 -5 58 0 57 1 59 38 80 44 25
56 17 46 -33z m2591 15 c3 -5 2 -10 -4 -10 -5 0 -13 5 -16 10 -3 6 -2 10 4 10
5 0 13 -4 16 -10z m135 0 c0 -6 -16 -18 -35 -27 -29 -14 -39 -15 -62 -3 l-28
13 45 12 c58 16 80 17 80 5z m502 -69 l38 -35 -20 -33 c-25 -42 -25 -46 2
-105 20 -44 24 -48 57 -48 20 0 41 -4 48 -8 7 -4 15 -37 19 -73 l6 -66 -44
-17 c-39 -15 -45 -22 -56 -62 -17 -63 -15 -74 15 -106 27 -28 27 -29 10 -61
-10 -17 -28 -44 -41 -60 l-22 -27 -47 17 c-43 16 -47 16 -65 0 -27 -24 -32
-21 -32 19 0 28 9 46 40 81 66 76 99 190 81 286 -21 116 -90 209 -188 254 -29
14 -53 26 -53 28 0 2 5 16 12 30 8 18 17 24 27 19 65 -26 69 -26 107 0 42 28
41 28 106 -33z m360 -76 c5 -21 7 -43 5 -49 -5 -15 -23 21 -32 63 -5 25 -4 32
6 29 7 -2 17 -22 21 -43z m-597 -44 c87 -39 137 -117 143 -222 4 -57 0 -74
-24 -122 -24 -51 -60 -97 -67 -86 -1 2 -17 21 -35 40 -30 33 -36 49 -53 145
-10 60 -19 115 -19 122 0 7 -12 24 -26 37 l-25 23 21 41 c23 46 29 48 85 22z
m567 -186 c2 -19 3 -35 1 -35 -8 0 -33 62 -28 70 11 17 23 2 27 -35z m-1221
-400 c44 -14 89 -25 100 -25 30 0 33 -21 20 -158 -14 -158 -40 -257 -81 -322
-34 -52 -137 -153 -187 -182 -29 -17 -30 -16 -73 12 -58 38 -142 120 -178 172
-49 72 -81 200 -97 384 -8 91 -12 85 65 99 71 13 157 46 205 79 l50 33 48 -33
c27 -19 85 -45 128 -59z m-1573 55 c57 -38 138 -68 207 -76 l55 -7 0 -68 c0
-91 -24 -250 -50 -323 -31 -90 -108 -181 -213 -251 l-56 -37 -44 31 c-115 79
-197 189 -221 296 -18 85 -41 318 -33 340 4 8 18 15 32 15 42 0 174 48 219 80
22 16 46 29 51 29 6 1 30 -13 53 -29z"/>
<path d="M2424 3814 c-27 -6 -34 -30 -34 -111 l0 -63 95 0 95 0 0 73 c0 39 -4
78 -9 85 -8 14 -108 24 -147 16z"/>
<path d="M3318 3810 c-12 -7 -18 -24 -18 -48 0 -52 51 -452 61 -479 8 -22 14
-23 99 -23 87 0 90 1 96 24 3 14 3 33 0 43 -3 10 -19 117 -36 238 -20 139 -37
225 -46 235 -17 17 -132 25 -156 10z"/>
<path d="M4235 2845 c-48 -47 -23 -115 43 -115 76 0 97 104 26 130 -36 14 -42
13 -69 -15z m70 -50 c0 -25 -4 -31 -27 -33 -19 -2 -28 2 -33 18 -8 27 12 52
39 48 16 -2 21 -10 21 -33z"/>
<path d="M3163 1459 c-49 -34 -123 -64 -182 -74 l-44 -7 6 -107 c12 -201 69
-321 200 -418 l59 -43 30 18 c52 30 147 133 173 186 29 61 55 201 55 302 0 68
-2 74 -21 74 -39 0 -126 31 -181 64 l-55 33 -40 -28z m153 -95 c2 -50 4 -54
19 -54 11 0 15 -11 15 -40 0 -34 3 -40 21 -40 19 0 20 4 16 38 -14 88 -14 87
13 87 19 0 24 -5 22 -20 -2 -11 -6 -44 -9 -72 -5 -48 -8 -53 -29 -53 -27 0
-31 -17 -9 -46 19 -25 19 -53 0 -60 -26 -10 -44 14 -38 50 6 36 -12 80 -28 71
-5 -4 -9 -13 -9 -21 0 -8 -30 -43 -66 -77 l-67 -62 6 -73 c5 -71 5 -73 -16
-70 -18 2 -22 9 -19 36 2 33 -7 39 -38 22 -22 -12 -46 11 -36 35 4 12 14 14
41 9 l35 -6 0 46 c0 46 0 46 -35 46 -32 0 -35 2 -35 29 0 47 -10 61 -41 61
-28 0 -29 2 -29 44 0 25 -4 48 -10 51 -15 10 -12 45 5 51 8 4 22 1 30 -6 12
-10 28 -10 76 -1 45 9 64 10 73 1 14 -14 -6 -47 -26 -41 -35 12 -100 12 -113
1 -8 -7 -15 -25 -15 -41 0 -29 1 -29 60 -29 54 0 60 2 60 21 0 11 5 17 10 14
16 -10 12 -55 -5 -56 -8 -1 -19 -3 -25 -4 -5 -1 -14 -3 -20 -4 -5 0 -10 -17
-10 -36 0 -33 2 -35 33 -35 18 0 38 -5 44 -11 8 -8 25 1 62 36 51 48 64 75 36
75 -11 0 -15 11 -15 41 0 32 4 42 20 46 16 4 20 14 20 45 0 47 24 49 26 2z
m-11 -304 c12 0 26 5 32 11 17 17 43 3 43 -22 0 -20 -4 -21 -40 -15 -25 4 -47
2 -60 -6 -16 -10 -22 -10 -36 3 -14 15 -14 18 2 33 12 12 20 14 27 7 6 -6 20
-11 32 -11z"/>
<path d="M3270 1270 c0 -16 7 -20 30 -20 23 0 30 4 30 20 0 16 -7 20 -30 20
-23 0 -30 -4 -30 -20z"/>
<path d="M1695 1437 c-63 -35 -128 -57 -164 -57 -20 0 -21 -5 -21 -94 0 -111
20 -217 54 -284 26 -50 140 -166 176 -177 40 -13 176 113 215 198 28 60 58
230 53 302 l-3 49 -65 16 c-74 19 -102 30 -145 59 -16 12 -32 21 -35 21 -3 0
-32 -15 -65 -33z"/>
</g>
</svg>
